<svg width="229" height="28" viewBox="0 0 229 28" fill="none" xmlns="http://www.w3.org/2000/svg">
<rect x="157" width="72" height="28" rx="6" fill="black"/>
<path d="M181.191 11.2734C182.53 10.2217 184.836 10.5772 185.85 11.9203C185.897 11.9796 185.982 11.9845 186.029 11.9302C186.08 11.8709 186.127 11.8117 186.179 11.7573C186.719 11.1846 187.386 10.8735 188.133 10.7352C188.922 10.5871 189.702 10.6315 190.453 10.9426C191.364 11.3179 191.979 12.0191 192.36 12.9523C192.637 13.6238 192.768 14.3349 192.773 15.0607C192.783 16.5618 192.778 18.0679 192.787 19.569C192.787 19.6924 192.754 19.7122 192.646 19.7122C191.951 19.7072 191.256 19.7072 190.566 19.7122C190.453 19.7122 190.42 19.6875 190.42 19.564C190.425 18.1419 190.425 16.7199 190.425 15.2978C190.425 14.883 190.359 14.483 190.171 14.1127C189.575 12.9375 188.086 12.819 187.311 13.8905C187.015 14.3003 186.874 14.7694 186.874 15.278C186.874 16.71 186.874 18.1419 186.879 19.5739C186.879 19.6875 186.851 19.7122 186.747 19.7122C186.038 19.7072 185.324 19.7072 184.615 19.7122C184.521 19.7122 184.498 19.6875 184.498 19.5887C184.502 18.1568 184.498 16.7248 184.502 15.2928C184.502 15.0262 184.479 14.7595 184.418 14.4978C184.244 13.7967 183.68 13.2683 182.999 13.1696C181.952 13.0165 181.323 13.846 181.116 14.5719C181.041 14.8287 181.013 15.0904 181.013 15.362C181.013 16.7248 181.013 18.0926 181.017 19.4554C181.017 19.5986 180.909 19.7122 180.773 19.7122C180.102 19.7072 179.43 19.7072 178.754 19.7122C178.655 19.7122 178.636 19.6825 178.636 19.5887C178.641 16.7149 178.641 13.846 178.636 10.9722C178.636 10.8834 178.65 10.8537 178.744 10.8537C179.468 10.8587 180.191 10.8587 180.914 10.8537C180.989 10.8537 181.017 10.8685 181.013 10.9525C181.008 11.0315 181.008 11.1056 181.008 11.1846C181.008 11.2784 181.116 11.3327 181.191 11.2734Z" fill="white"/>
<path d="M200.866 19.7172C200.823 19.8061 200.701 19.8061 200.659 19.7172C200.372 19.0901 200.091 18.4729 199.809 17.8557C199.527 17.2385 199.245 16.6262 198.963 15.9991C198.921 15.9053 198.799 15.9053 198.757 15.9991C198.188 17.2434 197.625 18.4729 197.057 19.7271C197.014 19.816 196.897 19.8209 196.85 19.7321C195.356 16.7644 193.872 13.8166 192.374 10.8489C192.43 10.8489 192.468 10.8489 192.506 10.8489C193.299 10.8489 194.098 10.8489 194.891 10.844C194.981 10.844 195.023 10.8786 195.061 10.9576C195.69 12.2957 196.324 13.6289 196.958 14.9671C196.977 15.0016 196.991 15.0362 197.019 15.0955C197.136 14.8387 197.244 14.5967 197.348 14.3597C197.479 14.0733 197.606 13.782 197.738 13.4956C197.77 13.4265 197.77 13.3722 197.738 13.2981C197.39 12.5278 197.042 11.7526 196.7 10.9773C196.686 10.9428 196.667 10.9082 196.653 10.8687C196.676 10.8341 196.709 10.8489 196.737 10.8489C197.432 10.8489 198.127 10.8489 198.823 10.844C198.902 10.844 198.94 10.8736 198.973 10.9477C199.588 12.3056 200.208 13.6635 200.828 15.0214C200.833 15.0313 200.842 15.0411 200.861 15.0658C200.959 14.8288 201.058 14.6066 201.152 14.3795C201.626 13.2388 202.105 12.0982 202.575 10.9576C202.613 10.8687 202.655 10.844 202.744 10.844C203.439 10.8489 204.134 10.844 204.83 10.844C204.867 10.844 204.905 10.844 204.956 10.844C203.59 13.8116 202.232 16.7546 200.866 19.7172Z" fill="white"/>
<path d="M216.641 13.1697C216.641 15.2979 216.641 17.4261 216.646 19.5543C216.646 19.6728 216.627 19.7074 216.505 19.7074C215.796 19.7024 215.082 19.7024 214.373 19.7074C214.284 19.7074 214.265 19.6827 214.265 19.5889C214.27 15.3127 214.27 11.0366 214.265 6.76534C214.265 6.65671 214.298 6.63696 214.392 6.63696C215.096 6.6419 215.805 6.6419 216.51 6.63696C216.623 6.63696 216.646 6.66659 216.646 6.7851C216.637 8.9133 216.641 11.0415 216.641 13.1697Z" fill="white"/>
<path d="M213.11 11.0071C213.11 10.9873 213.105 10.9626 213.11 10.9429C213.119 10.8737 213.096 10.854 213.025 10.854C212.33 10.854 211.63 10.854 210.935 10.854C210.823 10.854 210.733 10.9478 210.733 11.0663C210.733 11.1107 210.733 11.1552 210.733 11.1996C210.733 11.2984 210.625 11.3527 210.55 11.2984C210.048 10.9132 209.484 10.7108 208.873 10.6762C207.624 10.6022 206.567 11.0959 205.731 12.0588C204.689 13.2636 204.341 14.6907 204.632 16.2806C204.975 18.1274 206.394 19.6927 208.286 19.8902C208.991 19.9642 209.667 19.8457 210.292 19.4754C210.381 19.4211 210.461 19.3618 210.541 19.2927C210.616 19.2285 210.729 19.2828 210.729 19.3865C210.729 19.4606 210.729 19.5297 210.724 19.6038C210.719 19.6976 210.743 19.7223 210.832 19.7223C211.499 19.7174 212.166 19.7174 212.837 19.7223C212.983 19.7223 213.105 19.5988 213.105 19.4458C213.105 16.6213 213.11 13.8117 213.11 11.0071ZM210.668 16.1967C210.372 16.9621 209.705 17.4262 208.911 17.4213C207.657 17.4015 206.826 16.3152 206.962 15.0462C207.061 14.0981 207.61 13.4365 208.423 13.2143C209.569 12.9032 210.677 13.7031 210.808 14.9425C210.855 15.377 210.823 15.7967 210.668 16.1967Z" fill="white"/>
<path d="M177.528 11.0069C177.528 10.9822 177.523 10.9624 177.528 10.9427C177.537 10.8736 177.514 10.8538 177.443 10.8538C176.701 10.8538 175.964 10.8587 175.222 10.8538C175.147 10.8538 175.142 10.8884 175.142 10.9476C175.142 11.0316 175.142 11.1106 175.142 11.1995C175.142 11.2982 175.039 11.3525 174.959 11.2982C174.456 10.918 173.893 10.7155 173.282 10.681C172.084 10.6069 171.056 11.0563 170.239 11.9599C169.013 13.298 168.665 14.9176 169.154 16.7002C169.68 18.621 171.328 19.9591 173.188 19.8949C173.836 19.8703 174.437 19.7122 174.954 19.2827C175.029 19.2185 175.142 19.2728 175.142 19.3765C175.142 19.4456 175.142 19.5147 175.137 19.5839C175.132 19.6826 175.156 19.7073 175.255 19.7073C175.964 19.7024 176.668 19.7024 177.377 19.7073C177.495 19.7073 177.532 19.6826 177.532 19.5542C177.523 16.7051 177.528 13.856 177.528 11.0069ZM175.053 16.2706C174.714 17.031 174.123 17.4013 173.381 17.426C172.315 17.426 171.483 16.636 171.38 15.5694C171.286 14.6214 171.662 13.8066 172.404 13.3968C173.517 12.7746 174.987 13.3474 175.222 14.9028C175.287 15.3719 175.245 15.8361 175.053 16.2706Z" fill="white"/>
<g clip-path="url(#clip0_206_12597)">
<path d="M22.0786 14.843H8.12451V19.4916H22.0786V14.843Z" fill="#84B740"/>
<path d="M22.0786 8.5H8.12451V13.1527H22.0786V8.5Z" fill="#259BD6"/>
<path d="M36.0327 18.5472L35.9705 18.5596C35.7551 18.6011 35.6764 18.6176 35.5189 18.6176C35.1543 18.6176 34.7234 18.4312 34.7234 17.5528C34.7234 17.1012 34.798 16.5005 35.4775 16.5005H35.4816C35.5976 16.5088 35.7302 16.5212 35.9788 16.5958L36.0327 16.6124V18.5472ZM36.1445 14.1679L36.0327 14.1886V15.8127L35.9332 15.7837L35.9042 15.7754C35.7924 15.7423 35.5355 15.6677 35.2869 15.6677C33.928 15.6677 33.6421 16.6952 33.6421 17.557C33.6421 18.7378 34.305 19.4173 35.4609 19.4173C35.9498 19.4173 36.3103 19.3675 36.6749 19.2474C37.0104 19.1397 37.1306 18.9864 37.1306 18.6591V13.998C36.8074 14.0561 36.4718 14.1141 36.1445 14.1679Z" fill="#27292D"/>
<path d="M40.0723 18.5762L40.0143 18.5927L39.8072 18.6466C39.6124 18.6963 39.4384 18.7253 39.3058 18.7253C38.9868 18.7253 38.7962 18.5679 38.7962 18.2986C38.7962 18.1246 38.8749 17.8304 39.397 17.8304H40.0723V18.5762ZM39.5959 15.647C39.1774 15.647 38.7465 15.7215 38.212 15.8873L37.864 15.9909L37.98 16.778L38.3198 16.6662C38.6761 16.5502 39.1194 16.4756 39.4508 16.4756C39.6 16.4756 40.0557 16.4756 40.0557 16.9686V17.1841H39.4218C38.2659 17.1841 37.7314 17.5528 37.7314 18.3441C37.7314 19.0195 38.2245 19.4255 39.0531 19.4255C39.31 19.4255 39.6663 19.3758 39.9729 19.3012L39.9894 19.2971L40.006 19.3012L40.1096 19.3178C40.4328 19.3758 40.7684 19.4338 41.0957 19.4959V16.9106C41.0957 16.0737 40.5902 15.647 39.5959 15.647Z" fill="#27292D"/>
<path d="M32.022 18.5762L31.964 18.5927L31.7569 18.6466C31.5621 18.6963 31.3923 18.7253 31.2555 18.7253C30.9365 18.7253 30.7459 18.5679 30.7459 18.2986C30.7459 18.1246 30.8247 17.8304 31.3425 17.8304H32.0179L32.022 18.5762ZM31.5497 15.647C31.1271 15.647 30.7004 15.7215 30.1659 15.8873L29.8179 15.9909L29.9339 16.778L30.2736 16.6662C30.6299 16.5502 31.0732 16.4756 31.4047 16.4756C31.5538 16.4756 32.0096 16.4756 32.0096 16.9686V17.1841H31.3757C30.2198 17.1841 29.6812 17.5528 29.6812 18.3441C29.6812 19.0195 30.1742 19.4255 31.007 19.4255C31.2638 19.4255 31.6201 19.3758 31.9267 19.3012L31.9433 19.2971L31.9599 19.3012L32.0593 19.3178C32.3866 19.3758 32.7181 19.4338 33.0454 19.5001V16.9148C33.0495 16.0696 32.5441 15.647 31.5497 15.647Z" fill="#27292D"/>
<path d="M27.6592 15.6553C27.133 15.6553 26.698 15.8293 26.5364 15.9039L26.495 15.9246L26.4577 15.8956C26.234 15.734 25.9067 15.6511 25.4509 15.6511C25.049 15.6511 24.672 15.7091 24.2618 15.8293C23.9097 15.937 23.7729 16.1069 23.7729 16.4259V19.3799H24.875V16.6496L24.9289 16.633C25.1526 16.5585 25.2852 16.546 25.4136 16.546C25.7326 16.546 25.8942 16.7159 25.8942 17.0474V19.3841H26.9797V17.0018C26.9797 16.8609 26.9507 16.7781 26.9466 16.7615L26.9093 16.691L26.9839 16.6579C27.1496 16.5833 27.3319 16.546 27.5225 16.546C27.7421 16.546 28.0031 16.633 28.0031 17.0474V19.3841H29.0844V16.9396C29.0844 16.0737 28.6204 15.6553 27.6592 15.6553Z" fill="#27292D"/>
<path d="M39.2601 11.5328C39.0985 11.5328 38.8292 11.5162 38.6179 11.4748L38.5557 11.4623V9.86723C38.5557 9.73465 38.5309 9.65179 38.5267 9.63936L38.4936 9.57307L38.564 9.54407C38.5806 9.53578 38.5972 9.53164 38.6179 9.52335L38.6303 9.51507C38.6552 9.50678 38.68 9.49849 38.7049 9.49021C38.7173 9.48606 38.7256 9.48192 38.7339 9.48192C38.9783 9.41563 39.2021 9.42392 39.3015 9.41563H39.3056C39.981 9.41563 40.0597 10.0164 40.0597 10.468C40.0555 11.3463 39.6205 11.5328 39.2601 11.5328ZM39.2559 8.5C39.2476 8.5 39.2352 8.5 39.2269 8.5C38.593 8.5 37.9426 8.67401 37.7105 9.01375C37.5862 9.17947 37.5158 9.38663 37.5117 9.63107V11.2759C37.5117 11.4168 37.4827 11.4706 37.4785 11.4831L37.4412 11.5535H35.4401V10.41H35.436C35.4111 9.20433 34.6985 8.54143 33.6668 8.54143H33.5467H32.6601C32.6186 8.83559 32.5855 9.04275 32.5441 9.33691H33.5467C34.0729 9.33691 34.3505 9.78437 34.3505 10.4721V11.6239L34.28 11.5866C34.2676 11.5825 34.1806 11.5535 34.0439 11.5535H32.312C32.2789 11.7731 32.2375 12.0589 32.1919 12.3448H37.5158C37.6981 12.3075 37.9094 12.2744 38.0917 12.2454C38.361 12.378 38.8623 12.4484 39.2062 12.4484C40.3621 12.4484 41.112 11.6736 41.112 10.4804C41.1079 9.29962 40.3829 8.52486 39.2559 8.5Z" fill="#27292D"/>
<path d="M29.9213 12.8296H29.9711C31.127 12.8296 31.6656 12.4485 31.6656 11.508C31.6656 10.8327 31.1726 10.2941 30.3439 10.2941H29.2792C28.9601 10.2941 28.7696 10.1118 28.7696 9.80516C28.7696 9.59801 28.8483 9.34113 29.3703 9.34113H31.6987C31.7485 9.03869 31.7733 8.8481 31.8189 8.54565H29.3993C28.2724 8.54565 27.7048 9.01797 27.7048 9.80516C27.7048 10.5841 28.1978 10.9901 29.0264 10.9901H30.0912C30.4102 10.9901 30.6008 11.2428 30.6008 11.508C30.6008 11.682 30.5221 12.0425 30.0042 12.0425H29.8261L26.4163 12.0342H25.7948C25.2686 12.0342 24.8999 11.7359 24.8999 11.044V10.5675C24.8999 9.8466 25.1858 9.39914 25.7948 9.39914H26.8057C26.8513 9.09255 26.8803 8.89782 26.9217 8.6078H25.6622H25.5421C24.5104 8.6078 23.7978 9.2997 23.7729 10.5054V10.5509V11.044C23.7978 12.2496 24.5104 12.8255 25.5421 12.8255H25.6622H26.5488L28.3967 12.8296H29.4988H29.9213Z" fill="#27292D"/>
</g>
<g clip-path="url(#clip1_206_12597)">
<path d="M67.1625 9.51392C65.1963 9.51392 63.4392 10.533 63.4392 12.4159C63.4392 14.5753 66.5555 14.7244 66.5555 15.8092C66.5555 16.266 66.032 16.6749 65.138 16.6749C63.8692 16.6749 62.9209 16.1035 62.9209 16.1035L62.5151 18.0036C62.5151 18.0036 63.6076 18.4862 65.0579 18.4862C67.2076 18.4862 68.8992 17.417 68.8992 15.5019C68.8992 13.2202 65.7699 13.0755 65.7699 12.0686C65.7699 11.7108 66.1996 11.3188 67.0911 11.3188C68.0969 11.3188 68.9176 11.7343 68.9176 11.7343L69.3147 9.89912C69.3147 9.89912 68.4218 9.51392 67.1625 9.51392ZM49.1736 9.65242L49.126 9.92942C49.126 9.92942 49.9532 10.0808 50.6982 10.3828C51.6575 10.7291 51.7258 10.9307 51.8873 11.5568L53.6478 18.3434H56.0078L59.6434 9.65242H57.2889L54.9528 15.5614L53.9995 10.5527C53.9121 9.97943 53.4692 9.65242 52.9272 9.65242H49.1736ZM60.5902 9.65242L58.7432 18.3434H60.9884L62.8289 9.65242H60.5902ZM73.1127 9.65242C72.5712 9.65242 72.2844 9.94228 72.0739 10.4488L68.7845 18.3434H71.139L71.5945 17.0276H74.463L74.74 18.3434H76.8176L75.0051 9.65242H73.1127ZM73.4189 12.0004L74.1168 15.2617H72.247L73.4189 12.0004Z" fill="url(#paint0_linear_206_12597)"/>
</g>
<g clip-path="url(#clip2_206_12597)">
<path d="M90.8121 8C89.2225 8.00514 87.6999 8.64088 86.5786 9.76764C85.4573 10.8944 84.829 12.4201 84.8316 14.0097C84.8341 15.5993 85.4674 17.1229 86.5923 18.246C87.7173 19.3692 89.2419 20 90.8315 20C92.4212 20 93.9458 19.3692 95.0708 18.246C96.1957 17.1229 96.829 15.5993 96.8315 14.0097C96.8341 12.4201 96.2058 10.8944 95.0845 9.76764C93.9632 8.64088 92.4406 8.00514 90.851 8L90.8121 8Z" fill="#EB001B"/>
<path d="M98.2296 8C96.64 8.00514 95.1174 8.64088 93.9961 9.76764C92.8748 10.8944 92.2465 12.4201 92.249 14.0097C92.2516 15.5993 92.8849 17.1229 94.0098 18.246C95.1348 19.3692 96.6594 20 98.249 20C99.8386 20 101.363 19.3692 102.488 18.246C103.613 17.1229 104.246 15.5993 104.249 14.0097C104.252 12.4201 103.623 10.8944 102.502 9.76764C101.381 8.64088 99.8581 8.00514 98.2684 8L98.2296 8Z" fill="#F79E1B"/>
<path d="M94.5403 9.28149C93.8256 9.8429 93.2478 10.5593 92.8504 11.3767C92.4531 12.1941 92.2466 13.0911 92.2466 13.9999C92.2466 14.9088 92.4531 15.8058 92.8504 16.6232C93.2478 17.4405 93.8256 18.157 94.5403 18.7184C95.2551 18.157 95.8329 17.4405 96.2303 16.6232C96.6276 15.8058 96.8341 14.9088 96.8341 13.9999C96.8341 13.0911 96.6276 12.1941 96.2303 11.3767C95.8329 10.5593 95.2551 9.8429 94.5403 9.28149Z" fill="#FF5F00"/>
</g>
<g clip-path="url(#clip3_206_12597)">
<path d="M117.592 9.5471C117.25 9.95243 116.702 10.2721 116.154 10.2265C116.085 9.6784 116.354 9.0961 116.667 8.73644C117.01 8.3197 117.609 8.02284 118.095 8C118.152 8.57088 117.929 9.13035 117.592 9.5471ZM118.089 10.3349C117.295 10.2892 116.616 10.7859 116.239 10.7859C115.857 10.7859 115.28 10.3578 114.652 10.3692C113.836 10.3806 113.077 10.843 112.66 11.5794C111.804 13.0523 112.437 15.2331 113.265 16.432C113.67 17.0257 114.156 17.6765 114.795 17.6537C115.4 17.6308 115.64 17.2598 116.371 17.2598C117.107 17.2598 117.318 17.6537 117.958 17.6422C118.62 17.6308 119.037 17.0485 119.442 16.4548C119.904 15.7812 120.093 15.1246 120.104 15.0904C120.093 15.079 118.825 14.5937 118.814 13.1323C118.803 11.9106 119.813 11.3283 119.859 11.294C119.288 10.4491 118.397 10.3578 118.089 10.3349ZM122.673 8.67935V17.5794H124.055V14.5366H125.967C127.714 14.5366 128.942 13.3378 128.942 11.6023C128.942 9.86679 127.737 8.67935 126.013 8.67935H122.673ZM124.055 9.84396H125.648C126.846 9.84396 127.531 10.4833 127.531 11.608C127.531 12.7326 126.846 13.3777 125.642 13.3777H124.055V9.84396ZM131.465 17.648C132.333 17.648 133.138 17.2084 133.503 16.5119H133.531V17.5794H134.81V13.1494C134.81 11.8649 133.783 11.0371 132.201 11.0371C130.734 11.0371 129.649 11.8763 129.609 13.0295H130.854C130.957 12.4814 131.465 12.1218 132.161 12.1218C133.006 12.1218 133.48 12.5157 133.48 13.2407V13.7317L131.756 13.8344C130.152 13.9315 129.284 14.588 129.284 15.7298C129.284 16.883 130.18 17.648 131.465 17.648ZM131.836 16.5918C131.099 16.5918 130.631 16.2379 130.631 15.6955C130.631 15.1361 131.082 14.8107 131.944 14.7593L133.48 14.6622V15.1646C133.48 15.9981 132.772 16.5918 131.836 16.5918ZM136.517 20C137.864 20 138.498 19.4862 139.052 17.9277L141.478 11.1227H140.074L138.447 16.3806H138.418L136.791 11.1227H135.347L137.687 17.6023L137.562 17.9962C137.351 18.6641 137.008 18.921 136.397 18.921C136.289 18.921 136.078 18.9096 135.992 18.8982V19.9657C136.072 19.9886 136.414 20 136.517 20Z" fill="black"/>
</g>
<defs>
<linearGradient id="paint0_linear_206_12597" x1="49.1156" y1="12.5798" x2="76.8193" y2="12.5798" gradientUnits="userSpaceOnUse">
<stop stop-color="#20225F"/>
<stop offset="0.2" stop-color="#1A1F61"/>
<stop offset="0.410233" stop-color="#172272"/>
<stop offset="0.595197" stop-color="#152682"/>
<stop offset="0.802083" stop-color="#12288E"/>
<stop offset="1" stop-color="#0E2C9A"/>
</linearGradient>
<clipPath id="clip0_206_12597">
<rect width="32.9876" height="11" fill="white" transform="translate(8.12451 8.5)"/>
</clipPath>
<clipPath id="clip1_206_12597">
<rect width="27.7193" height="9" fill="white" transform="translate(49.1123 9.5)"/>
</clipPath>
<clipPath id="clip2_206_12597">
<rect width="19.4175" height="12" fill="white" transform="translate(84.8315 8)"/>
</clipPath>
<clipPath id="clip3_206_12597">
<rect width="29.2293" height="12" fill="white" transform="translate(112.249 8)"/>
</clipPath>
</defs>
</svg>
