<svg width="141" height="16" viewBox="0 0 141 16" fill="none" xmlns="http://www.w3.org/2000/svg">
<g clip-path="url(#clip0_185_10253)">
<path d="M15.954 8.84302H2V13.4916H15.954V8.84302Z" fill="#84B740"/>
<path d="M15.954 2.5H2V7.15273H15.954V2.5Z" fill="#259BD6"/>
<path d="M29.908 12.5472L29.8459 12.5596C29.6304 12.6011 29.5517 12.6176 29.3943 12.6176C29.0297 12.6176 28.5988 12.4312 28.5988 11.5528C28.5988 11.1012 28.6734 10.5005 29.3529 10.5005H29.357C29.473 10.5088 29.6056 10.5212 29.8542 10.5958L29.908 10.6124V12.5472ZM30.0199 8.16792L29.908 8.18863V9.81274L29.8086 9.78373L29.7796 9.77545C29.6677 9.7423 29.4109 9.66773 29.1623 9.66773C27.8033 9.66773 27.5175 10.6952 27.5175 11.557C27.5175 12.7378 28.1804 13.4173 29.3363 13.4173C29.8252 13.4173 30.1856 13.3675 30.5502 13.2474C30.8858 13.1397 31.006 12.9864 31.006 12.6591V7.99805C30.6828 8.05605 30.3472 8.11405 30.0199 8.16792Z" fill="#27292D"/>
<path d="M33.9477 12.5762L33.8897 12.5927L33.6825 12.6466C33.4878 12.6963 33.3138 12.7253 33.1812 12.7253C32.8622 12.7253 32.6716 12.5679 32.6716 12.2986C32.6716 12.1246 32.7503 11.8304 33.2723 11.8304H33.9477V12.5762ZM33.4712 9.64697C33.0528 9.64697 32.6219 9.72155 32.0874 9.88727L31.7394 9.99085L31.8554 10.778L32.1951 10.6662C32.5514 10.5502 32.9948 10.4756 33.3262 10.4756C33.4754 10.4756 33.9311 10.4756 33.9311 10.9686V11.1841H33.2972C32.1413 11.1841 31.6068 11.5528 31.6068 12.3441C31.6068 13.0195 32.0998 13.4255 32.9285 13.4255C33.1853 13.4255 33.5417 13.3758 33.8482 13.3012L33.8648 13.2971L33.8814 13.3012L33.985 13.3178C34.3081 13.3758 34.6437 13.4338 34.971 13.4959V10.9106C34.971 10.0737 34.4656 9.64697 33.4712 9.64697Z" fill="#27292D"/>
<path d="M25.8975 12.5762L25.8395 12.5927L25.6323 12.6466C25.4376 12.6963 25.2678 12.7253 25.131 12.7253C24.812 12.7253 24.6214 12.5679 24.6214 12.2986C24.6214 12.1246 24.7001 11.8304 25.218 11.8304H25.8934L25.8975 12.5762ZM25.4252 9.64697C25.0026 9.64697 24.5759 9.72155 24.0414 9.88727L23.6934 9.99085L23.8094 10.778L24.1491 10.6662C24.5054 10.5502 24.9487 10.4756 25.2802 10.4756C25.4293 10.4756 25.8851 10.4756 25.8851 10.9686V11.1841H25.2512C24.0952 11.1841 23.5566 11.5528 23.5566 12.3441C23.5566 13.0195 24.0497 13.4255 24.8824 13.4255C25.1393 13.4255 25.4956 13.3758 25.8022 13.3012L25.8188 13.2971L25.8354 13.3012L25.9348 13.3178C26.2621 13.3758 26.5936 13.4338 26.9209 13.5001V10.9148C26.925 10.0696 26.4195 9.64697 25.4252 9.64697Z" fill="#27292D"/>
<path d="M21.5348 9.65527C21.0086 9.65527 20.5736 9.82928 20.412 9.90385L20.3706 9.92457L20.3333 9.89557C20.1096 9.73399 19.7823 9.65112 19.3265 9.65112C18.9246 9.65112 18.5476 9.70913 18.1374 9.82928C17.7853 9.937 17.6486 10.1069 17.6486 10.4259V13.3799H18.7506V10.6496L18.8045 10.633C19.0282 10.5585 19.1608 10.546 19.2892 10.546C19.6083 10.546 19.7698 10.7159 19.7698 11.0474V13.3841H20.8553V11.0018C20.8553 10.8609 20.8263 10.7781 20.8222 10.7615L20.7849 10.691L20.8595 10.6579C21.0252 10.5833 21.2075 10.546 21.3981 10.546C21.6177 10.546 21.8787 10.633 21.8787 11.0474V13.3841H22.96V10.9396C22.96 10.0737 22.496 9.65527 21.5348 9.65527Z" fill="#27292D"/>
<path d="M33.1356 5.53277C32.974 5.53277 32.7047 5.5162 32.4934 5.47476L32.4312 5.46234V3.86723C32.4312 3.73465 32.4064 3.65179 32.4022 3.63936L32.3691 3.57307L32.4395 3.54407C32.4561 3.53578 32.4727 3.53164 32.4934 3.52335L32.5058 3.51507C32.5307 3.50678 32.5555 3.49849 32.5804 3.49021C32.5928 3.48606 32.6011 3.48192 32.6094 3.48192C32.8538 3.41563 33.0776 3.42392 33.177 3.41563H33.1811C33.8565 3.41563 33.9352 4.01638 33.9352 4.46798C33.931 5.34633 33.496 5.53277 33.1356 5.53277ZM33.1314 2.5C33.1231 2.5 33.1107 2.5 33.1024 2.5C32.4685 2.5 31.818 2.67401 31.586 3.01375C31.4617 3.17947 31.3913 3.38663 31.3872 3.63107V5.27589C31.3872 5.41676 31.3582 5.47062 31.354 5.48305L31.3167 5.55348H29.3156V4.40998H29.3115C29.2866 3.20433 28.574 2.54143 27.5423 2.54143H27.4222H26.5356C26.4941 2.83559 26.461 3.04275 26.4195 3.33691H27.4222C27.9484 3.33691 28.226 3.78437 28.226 4.47213V5.62392L28.1555 5.58663C28.1431 5.58249 28.0561 5.55348 27.9194 5.55348H26.1875C26.1544 5.77307 26.113 6.05895 26.0674 6.34482H31.3913C31.5736 6.30753 31.7849 6.27439 31.9672 6.24539C32.2365 6.37797 32.7378 6.4484 33.0817 6.4484C34.2376 6.4484 34.9875 5.67363 34.9875 4.48041C34.9834 3.29962 34.2583 2.52486 33.1314 2.5Z" fill="#27292D"/>
<path d="M23.797 6.82965H23.8467C25.0026 6.82965 25.5412 6.44848 25.5412 5.50799C25.5412 4.83266 25.0482 4.29405 24.2196 4.29405H23.1548C22.8358 4.29405 22.6452 4.11176 22.6452 3.80516C22.6452 3.59801 22.7239 3.34113 23.2459 3.34113H25.5744C25.6241 3.03869 25.6489 2.8481 25.6945 2.54565H23.2749C22.148 2.54565 21.5804 3.01797 21.5804 3.80516C21.5804 4.58407 22.0734 4.9901 22.902 4.9901H23.9668C24.2858 4.9901 24.4764 5.24283 24.4764 5.50799C24.4764 5.682 24.3977 6.04245 23.8798 6.04245H23.7017L20.2919 6.03417H19.6704C19.1442 6.03417 18.7755 5.73586 18.7755 5.04396V4.5675C18.7755 3.8466 19.0614 3.39914 19.6704 3.39914H20.6813C20.7269 3.09255 20.7559 2.89782 20.7973 2.6078H19.5378H19.4177C18.386 2.6078 17.6734 3.2997 17.6486 4.50535V4.55093V5.04396C17.6734 6.24961 18.386 6.8255 19.4177 6.8255H19.5378H20.4245L22.2723 6.82965H23.3744H23.797Z" fill="#27292D"/>
</g>
<g clip-path="url(#clip1_185_10253)">
<path d="M63.0435 3.01538C60.8589 3.01538 58.9065 4.14774 58.9065 6.23986C58.9065 8.63913 62.3691 8.80485 62.3691 10.0102C62.3691 10.5177 61.7874 10.972 60.7941 10.972C59.3843 10.972 58.3306 10.3372 58.3306 10.3372L57.8798 12.4484C57.8798 12.4484 59.0936 12.9846 60.7051 12.9846C63.0937 12.9846 64.9732 11.7966 64.9732 9.66873C64.9732 7.13347 61.4962 6.97268 61.4962 5.85393C61.4962 5.45637 61.9737 5.02076 62.9642 5.02076C64.0818 5.02076 64.9936 5.48243 64.9936 5.48243L65.4348 3.44339C65.4348 3.44339 64.4427 3.01538 63.0435 3.01538ZM43.0558 3.16927L43.0029 3.47705C43.0029 3.47705 43.922 3.64526 44.7498 3.9808C45.8157 4.36557 45.8916 4.58956 46.0711 5.28526L48.0272 12.8259H50.6493L54.689 3.16927H52.0728L49.4771 9.73485L48.4179 4.16956C48.3208 3.53261 47.8288 3.16927 47.2265 3.16927H43.0558ZM55.741 3.16927L53.6887 12.8259H56.1834L58.2284 3.16927H55.741ZM69.6548 3.16927C69.0532 3.16927 68.7345 3.49134 68.5006 4.05414L64.8457 12.8259H67.4619L67.968 11.3639H71.1552L71.463 12.8259H73.7714L71.7576 3.16927H69.6548ZM69.995 5.77819L70.7705 9.40183H68.693L69.995 5.77819Z" fill="url(#paint0_linear_185_10253)"/>
</g>
<g clip-path="url(#clip2_185_10253)">
<path d="M87.7673 2C86.1777 2.00514 84.6551 2.64088 83.5338 3.76764C82.4125 4.89439 81.7842 6.42006 81.7868 8.00968C81.7893 9.59929 82.4226 11.1229 83.5475 12.246C84.6725 13.3692 86.1971 14 87.7867 14C89.3764 14 90.901 13.3692 92.026 12.246C93.1509 11.1229 93.7842 9.59929 93.7867 8.00968C93.7893 6.42006 93.161 4.89439 92.0397 3.76764C90.9184 2.64088 89.3958 2.00514 87.8062 2L87.7673 2Z" fill="#EB001B"/>
<path d="M95.1848 2C93.5952 2.00514 92.0726 2.64088 90.9513 3.76764C89.83 4.89439 89.2017 6.42006 89.2042 8.00968C89.2068 9.59929 89.8401 11.1229 90.965 12.246C92.09 13.3692 93.6146 14 95.2042 14C96.7938 14 98.3185 13.3692 99.4434 12.246C100.568 11.1229 101.202 9.59929 101.204 8.00968C101.207 6.42006 100.578 4.89439 99.4572 3.76764C98.3359 2.64088 96.8133 2.00514 95.2236 2L95.1848 2Z" fill="#F79E1B"/>
<path d="M91.4955 3.28149C90.7808 3.8429 90.203 4.55934 89.8056 5.37673C89.4083 6.19411 89.2018 7.09109 89.2018 7.99994C89.2018 8.90879 89.4083 9.80577 89.8056 10.6232C90.203 11.4405 90.7808 12.157 91.4955 12.7184C92.2103 12.157 92.7881 11.4405 93.1855 10.6232C93.5828 9.80577 93.7893 8.90879 93.7893 7.99994C93.7893 7.09109 93.5828 6.19411 93.1855 5.37673C92.7881 4.55934 92.2103 3.8429 91.4955 3.28149Z" fill="#FF5F00"/>
</g>
<g clip-path="url(#clip3_185_10253)">
<path d="M114.548 3.5471C114.205 3.95243 113.657 4.27212 113.109 4.22645C113.041 3.6784 113.309 3.0961 113.623 2.73644C113.965 2.3197 114.565 2.02284 115.05 2C115.107 2.57088 114.884 3.13035 114.548 3.5471ZM115.044 4.33492C114.251 4.28925 113.571 4.78592 113.195 4.78592C112.812 4.78592 112.236 4.35775 111.608 4.36917C110.791 4.38059 110.032 4.84301 109.615 5.57945C108.759 7.05233 109.393 9.23311 110.22 10.432C110.626 11.0257 111.111 11.6765 111.75 11.6537C112.355 11.6308 112.595 11.2598 113.326 11.2598C114.062 11.2598 114.274 11.6537 114.913 11.6422C115.575 11.6308 115.992 11.0485 116.397 10.4548C116.86 9.78116 117.048 9.12464 117.06 9.09039C117.048 9.07897 115.781 8.59372 115.769 7.13226C115.758 5.91056 116.768 5.32826 116.814 5.29401C116.243 4.4491 115.353 4.35775 115.044 4.33492ZM119.629 2.67935V11.5794H121.01V8.53663H122.923C124.669 8.53663 125.897 7.33777 125.897 5.60228C125.897 3.86679 124.692 2.67935 122.968 2.67935H119.629ZM121.01 3.84396H122.603C123.802 3.84396 124.487 4.48335 124.487 5.60799C124.487 6.73264 123.802 7.37774 122.597 7.37774H121.01V3.84396ZM128.42 11.648C129.288 11.648 130.093 11.2084 130.458 10.5119H130.487V11.5794H131.766V7.14938C131.766 5.86489 130.738 5.03711 129.157 5.03711C127.689 5.03711 126.605 5.87631 126.565 7.0295H127.809C127.912 6.48145 128.42 6.12179 129.117 6.12179C129.962 6.12179 130.435 6.5157 130.435 7.24072V7.73168L128.711 7.83444C127.107 7.93149 126.239 8.58801 126.239 9.72978C126.239 10.883 127.136 11.648 128.42 11.648ZM128.791 10.5918C128.055 10.5918 127.587 10.2379 127.587 9.69553C127.587 9.13606 128.038 8.81066 128.9 8.75928L130.435 8.66223V9.16461C130.435 9.9981 129.727 10.5918 128.791 10.5918ZM133.472 14C134.82 14 135.453 13.4862 136.007 11.9277L138.433 5.12274H137.029L135.402 10.3806H135.374L133.747 5.12274H132.302L134.643 11.6023L134.517 11.9962C134.306 12.6641 133.963 12.921 133.353 12.921C133.244 12.921 133.033 12.9096 132.947 12.8982V13.9657C133.027 13.9886 133.37 14 133.472 14Z" fill="black"/>
</g>
<defs>
<linearGradient id="paint0_linear_185_10253" x1="42.9914" y1="6.42195" x2="73.7733" y2="6.42195" gradientUnits="userSpaceOnUse">
<stop stop-color="#20225F"/>
<stop offset="0.2" stop-color="#1A1F61"/>
<stop offset="0.410233" stop-color="#172272"/>
<stop offset="0.595197" stop-color="#152682"/>
<stop offset="0.802083" stop-color="#12288E"/>
<stop offset="1" stop-color="#0E2C9A"/>
</linearGradient>
<clipPath id="clip0_185_10253">
<rect width="32.9876" height="11" fill="white" transform="translate(2 2.5)"/>
</clipPath>
<clipPath id="clip1_185_10253">
<rect width="30.7992" height="10" fill="white" transform="translate(42.9875 3)"/>
</clipPath>
<clipPath id="clip2_185_10253">
<rect width="19.4175" height="12" fill="white" transform="translate(81.7867 2)"/>
</clipPath>
<clipPath id="clip3_185_10253">
<rect width="29.2293" height="12" fill="white" transform="translate(109.204 2)"/>
</clipPath>
</defs>
</svg>
